# xmcd
#
# Track frame offsets: 
#        150
#        9565
#        22845
#        29790
#        41080
#        45955
#        54082
#        69307
#        89145
#        92604
#        97157
#        116190
#        124605
#        149875
#        158837
#        164035
#        170565
#        189795
#        195180
#        205345
#        208420
#        219857
#
# Disc length: 3151 seconds
#
# Revision: 0
# Processed by: cddbd v1.5.1PL0 Copyright (c) Steve Scherf et al.
# Submitted via: ExactAudioCopy v0.95a4
#
DISCID=3c0c4d16
DTITLE=Various Artist - Brave Boys - New England Traditions in Folk Music
DYEAR=1977
DGENRE=Folk
TTITLE0=Gail Stoddard Storm - A Frog He Would A-Wooing Go
TTITLE1=Lewis Lund - The Farmer's Curst Wife
TTITLE2=Ben Mandel - The Two Brothers
TTITLE3=Gail Stoddard Storm - My Man John
TTITLE4=Newton E. Tolman, Kay Gilbert - Ladies' Walpole Reel
TTITLE5=Gail Huntington - Brave Boys
TTITLE6=Sara Cleveland - Fair Fannie Moore
TTITLE7=Lawrence Older - The Jam on Gerry's Rock
TTITLE8=Mrs. Morris Austin - And Now, Old Serpent, How Do You Feel?
TTITLE9=Mrs. Morris Austin - Who Will Bow and Bend Like a Willow?
TTITLE10=Harvey Tolman, Rose Tolman - A Medley of Scottish Fiddle Tune
TTITLE10=s
TTITLE11=Phil, Paul, and Sterl Van Arsdale - The Flowers of Edinburgh
TTITLE12=James Brown - The Good Old State of Maine
TTITLE13=Gail Huntington - The Dreadnaught
TTITLE14=Sara Cleveland - Three Men They Went a-Hunting
TTITLE15=Edward Kirby - Erin-Go-Bragh
TTITLE16=Sara Cleveland - Give an Honest Irish Lad a Chance
TTITLE17=Wilfred Guilette, Maurice Campbell - Knit Stockings
TTITLE18=Mack Moody - The Johnstown Flood
TTITLE19=Rosalie Shaw - The Good Old Days of Adam and Eve
TTITLE20=Grant Rogers - I'll Hit the Road Again, Boys
TTITLE21=Brendan Mulvihill, Kevin Taylor, Seamus Loque - Cherish the L
TTITLE21=adies
EXTD=
EXTT0=
EXTT1=
EXTT2=
EXTT3=
EXTT4=
EXTT5=
EXTT6=
EXTT7=
EXTT8=
EXTT9=
EXTT10=
EXTT11=
EXTT12=
EXTT13=
EXTT14=
EXTT15=
EXTT16=
EXTT17=
EXTT18=
EXTT19=
EXTT20=
EXTT21=
PLAYORDER=
